<?xml version="1.0" encoding="UTF-8"?>
<svg version="1.1" xmlns="http://www.w3.org/2000/svg" width="1213" height="1173">
<path d="M0 0 C1.61056274 0.00090637 1.61056274 0.00090637 3.25366211 0.00183105 C20.99730579 0.02881308 38.57770701 0.47240762 56.25 2.1875 C57.54083496 2.31108887 58.83166992 2.43467773 60.16162109 2.56201172 C112.2400784 7.68568369 163.57636655 20.46992819 211.25 42.1875 C212.29591309 42.66300293 213.34182617 43.13850586 214.41943359 43.62841797 C245.17471631 57.73578367 273.78607673 75.07690942 300.25 96.1875 C301.260625 96.98542969 302.27125 97.78335938 303.3125 98.60546875 C309.26200262 103.38028265 314.89396513 108.4487961 320.48046875 113.63671875 C322.70227318 115.6830351 324.95033738 117.66814423 327.25 119.625 C335.53548365 126.82074363 343.18056682 134.80495397 350.25 143.1875 C351.02214844 144.07050781 351.79429687 144.95351563 352.58984375 145.86328125 C361.01893567 155.55721247 368.71091345 165.79243007 376.25 176.1875 C376.86246582 177.02700195 377.47493164 177.86650391 378.10595703 178.73144531 C379.84583597 181.13761077 381.55309946 183.56339225 383.25 186 C383.77263428 186.7221167 384.29526855 187.4442334 384.83374023 188.18823242 C385.30110596 188.87506104 385.76847168 189.56188965 386.25 190.26953125 C386.6625 190.85968018 387.075 191.4498291 387.5 192.05786133 C389.4299985 197.53812726 386.5100653 204.18043083 384.87109375 209.5546875 C384.50621857 210.7705101 384.50621857 210.7705101 384.13397217 212.01089478 C383.32498033 214.69677933 382.50713752 217.37984608 381.6875 220.0625 C381.26025131 221.46640991 381.26025131 221.46640991 380.82437134 222.89868164 C365.91934693 271.81446297 349.85753891 320.34126651 329.25 367.1875 C328.80880829 368.1923645 328.80880829 368.1923645 328.35870361 369.2175293 C309.91755416 411.16037131 289.10532245 451.74872585 257.25 485.1875 C256.05117187 486.48300781 256.05117187 486.48300781 254.828125 487.8046875 C239.29924789 504.09478408 218.56742192 516.04601598 195.8125 517.390625 C161.05547035 517.84795434 133.79826518 498.08683764 109.83984375 474.96484375 C102.95222178 468.21994707 96.28211832 461.42992897 90.3359375 453.83203125 C88.41594109 451.3978785 86.41675176 449.05394034 84.38061523 446.71679688 C77.69363219 439.00695966 71.75893698 430.8140659 65.87304688 422.48388672 C64.29157935 420.24632903 62.70155141 418.01510219 61.109375 415.78515625 C50.72268186 401.20212004 40.90872615 386.26005571 31.25 371.1875 C30.79431641 370.47706543 30.33863281 369.76663086 29.86914062 369.03466797 C16.63619574 348.3593581 4.04796837 327.28397702 -8.45004272 306.15911865 C-13.75430899 297.19371668 -19.11839974 288.26876739 -24.55160522 279.38095093 C-30.56107 269.55015476 -36.37969759 259.64007217 -41.99829102 249.58056641 C-78.28332205 184.48025257 -78.28332205 184.48025257 -138.75 145.1875 C-153.04099374 141.57421795 -168.30419508 144.36989905 -181 151.4375 C-195.55902548 160.54651991 -207.24524188 172.72129412 -217.75 186.1875 C-218.53890625 187.17105469 -219.3278125 188.15460938 -220.140625 189.16796875 C-259.24417054 238.35301802 -284.25195974 300.69562333 -305.75 359.1875 C-306.18412201 360.3638501 -306.18412201 360.3638501 -306.62701416 361.56396484 C-340.86971839 454.36594837 -365.3536455 550.09894189 -382.71679688 647.41796875 C-384.21076609 655.78137089 -385.74789674 664.13682005 -387.28820801 672.49179077 C-387.73786059 674.93406514 -388.18510526 677.37676977 -388.63183594 679.81958008 C-388.90032286 681.28207624 -389.16887356 682.7445607 -389.4375 684.20703125 C-389.66824219 685.46620361 -389.89898437 686.72537598 -390.13671875 688.02270508 C-390.6051729 690.44012987 -391.11454493 692.81011113 -391.75 695.1875 C-392.41 695.1875 -393.07 695.1875 -393.75 695.1875 C-438.31404667 615.48686034 -455.54852666 530.04590635 -452.75 394.1875 C-452.62641113 392.89376465 -452.50282227 391.6000293 -452.37548828 390.26708984 C-447.2573579 338.24067364 -434.08231652 287.95668054 -412.75 240.1875 C-412.18031494 238.90141846 -412.18031494 238.90141846 -411.59912109 237.58935547 C-400.44399789 212.58925673 -386.02451519 189.16360899 -369.75 167.1875 C-369.34958496 166.64673828 -368.94916992 166.10597656 -368.53662109 165.54882812 C-352.58796806 144.14693046 -334.22833494 123.35542741 -313.75 106.1875 C-312.41195312 105.01574219 -312.41195312 105.01574219 -311.046875 103.8203125 C-240.65425075 42.50364545 -148.31886806 10.88837495 -42.75 1.1875 C-42.10959778 1.14513214 -41.46919556 1.10276428 -40.80938721 1.05911255 C-27.20582914 0.18225128 -13.62922008 -0.01426867 0 0 Z " fill="#29B5DB" transform="translate(605.75,136.8125)"/>
<path d="M0 0 C3.16669505 3.05912846 5.202972 5.83481052 7.25 9.75 C7.85223389 10.90056885 8.45446777 12.0511377 9.07495117 13.23657227 C9.71799217 14.49035258 10.35963756 15.74484951 11 17 C11.32980865 17.64347382 11.65961731 18.28694763 11.99942017 18.94992065 C42.00021472 77.6606382 58.04732105 142.28671238 62 208 C62.06316406 209.03688965 62.12632812 210.0737793 62.19140625 211.14208984 C66.90940485 294.52267673 55.4841534 380.55545398 21 457 C20.52691406 458.04929687 20.05382812 459.09859375 19.56640625 460.1796875 C4.28388856 493.72667754 -15.52496436 525.36452432 -40 553 C-40.77601563 553.886875 -41.55203125 554.77375 -42.3515625 555.6875 C-48.20872129 562.23264252 -54.36263319 568.48870468 -60.54745483 574.72268677 C-61.95726623 576.1444053 -63.36309679 577.57006788 -64.76879883 578.99584961 C-70.86785167 585.10253513 -77.24298797 590.63681997 -84 596 C-85.23147996 597.01281882 -86.460969 598.02806857 -87.6875 599.046875 C-162.45793281 660.37393671 -259.82984753 687.42735616 -372.51171875 693.203125 C-373.9621941 693.21010419 -375.41266915 693.21714516 -376.86314392 693.22424316 C-381.47126649 693.24351474 -386.07934151 693.24841842 -390.6875 693.25 C-391.47136833 693.25058914 -392.25523666 693.25117828 -393.06285858 693.25178528 C-416.50219256 693.26422777 -439.71442365 692.95965614 -463 690 C-464.81274414 689.7831958 -464.81274414 689.7831958 -466.66210938 689.56201172 C-515.06881647 683.68999983 -562.58789598 671.19749956 -607 651 C-608.0405957 650.52981445 -609.08119141 650.05962891 -610.15332031 649.57519531 C-645.19429124 633.61604821 -678.26196415 612.69379102 -707 587 C-707.90878906 586.20207031 -708.81757812 585.40414062 -709.75390625 584.58203125 C-716.27601468 578.74646055 -722.51011597 572.61617171 -728.72167969 566.45355225 C-730.14381295 565.04332142 -731.56989288 563.63707405 -732.99609375 562.23095703 C-739.1025591 556.13212476 -744.63845116 549.75805452 -750 543 C-751.00127097 541.78038381 -752.00481526 540.56262643 -753.01171875 539.34765625 C-760.65339348 530.00752119 -767.76211553 520.29316031 -774.45654297 510.25048828 C-775.95429631 507.9991172 -775.95429631 507.9991172 -777.62548828 506.01123047 C-779.73519395 503.25776719 -781.08845659 501.29901194 -780.84716797 497.75561523 C-780.05863768 494.76888995 -779.03690784 491.910369 -778 489 C-777.31769757 486.7753954 -776.66509417 484.54314455 -776.01304626 482.30949402 C-760.99914004 430.96610815 -744.18340767 380.15704904 -723 331 C-722.73034424 330.37301208 -722.46068848 329.74602417 -722.18286133 329.10003662 C-704.78088763 288.70484608 -685.30376924 249.21393476 -656 216 C-654.86304688 214.67935547 -654.86304688 214.67935547 -653.703125 213.33203125 C-638.72071952 196.19789733 -618.32381293 180.04337716 -595 177 C-561.71618708 175.08957706 -537.66779644 186.90633974 -512.9609375 208.6640625 C-502.57293768 217.93289955 -493.82426403 228.26333432 -485.34667969 239.25927734 C-484.09732134 240.87420211 -482.83437127 242.47858693 -481.5703125 244.08203125 C-468.47589031 260.80425237 -456.84456268 278.60301631 -445.12446594 296.29899597 C-443.02998502 299.45835686 -440.91883535 302.60527542 -438.78515625 305.73828125 C-431.52823038 316.41821614 -424.83565327 327.41216467 -418.16351318 338.46173096 C-408.34273911 354.72513532 -397.9889066 370.58414647 -387.42944336 386.37426758 C-378.85995172 399.18963422 -370.37248 412.05473577 -362 425 C-361.47325684 425.81436523 -360.94651367 426.62873047 -360.40380859 427.46777344 C-355.31217873 435.3687515 -350.3711624 443.35367667 -345.54296875 451.41796875 C-345.14896378 452.07602509 -344.7549588 452.73408142 -344.34901428 453.41207886 C-342.39060601 456.68610518 -340.43753285 459.96316771 -338.49243164 463.24511719 C-326.20327238 483.92497108 -312.41766485 503.37894611 -296 521 C-294.93845703 522.14275391 -294.93845703 522.14275391 -293.85546875 523.30859375 C-279.39666009 538.34054437 -261.61746201 548.92369382 -240.51171875 549.99609375 C-219.4802807 550.01948801 -203.73058232 539.05175767 -189.375 524.8125 C-181.95152627 517.29225846 -175.18143551 509.5603516 -169 501 C-168.53078125 500.36449219 -168.0615625 499.72898437 -167.578125 499.07421875 C-124.25106797 440.35465462 -97.76107721 368.98505314 -73.90887451 300.60229492 C-73.01682818 298.04818255 -72.12056534 295.49558771 -71.22314453 292.94335938 C-40.11139158 204.35033017 -17.43707113 113.71190426 -3.36906433 20.90118408 C-2.30945119 13.92301516 -1.17788236 6.95917887 0 0 Z " fill="#29B5DB" transform="translate(999,342)"/>
</svg>
